<?xml version="1.0" encoding="UTF-8"?>
<svg version="1.1" xmlns="http://www.w3.org/2000/svg" width="512" height="512">
<path d="M0 0 C1.21562261 -0.00525911 1.21562261 -0.00525911 2.45580325 -0.01062447 C5.18266079 -0.01995904 7.90930574 -0.01500985 10.63617229 -0.01015663 C12.60644238 -0.01389185 14.57671098 -0.01849286 16.54697722 -0.02388728 C21.97020477 -0.0361485 27.39337077 -0.03585314 32.81660903 -0.03349853 C38.66200093 -0.03309115 44.50737289 -0.04412193 50.35275555 -0.05361366 C61.80830026 -0.07024166 73.2638244 -0.07572402 84.71938018 -0.07683842 C94.02888347 -0.07778802 103.33837996 -0.08189393 112.64788151 -0.08823967 C115.32686652 -0.09003474 118.00585154 -0.09181436 120.68483657 -0.09358943 C121.35082624 -0.09403152 122.01681592 -0.09447362 122.7029871 -0.09492911 C141.43817291 -0.10723892 160.17335641 -0.1151301 178.90854645 -0.11424255 C179.61502182 -0.1142114 180.3214972 -0.11418024 181.04938092 -0.11414814 C184.63015365 -0.11398192 188.21092637 -0.11378384 191.79169909 -0.11357872 C192.50286297 -0.11353883 193.21402685 -0.11349894 193.94674116 -0.11345784 C195.38488813 -0.11337697 196.8230351 -0.11329337 198.26118208 -0.11320706 C220.63731869 -0.1119815 243.0133947 -0.12699505 265.38951397 -0.15435219 C290.52464772 -0.18506979 315.65974164 -0.20228488 340.79489535 -0.20042574 C354.10506989 -0.19968441 367.41518031 -0.20528478 380.72533894 -0.22678185 C392.05716278 -0.24496611 403.38888728 -0.24936363 414.72071937 -0.235763 C420.50395073 -0.22921951 426.28699136 -0.22916605 432.07020473 -0.2464695 C437.36336733 -0.26214404 442.65618708 -0.25939406 447.94934102 -0.24190123 C449.8652043 -0.23881894 451.7810928 -0.24250973 453.69692633 -0.25362138 C456.30052816 -0.26772306 458.9029242 -0.25717185 461.50648499 -0.24050903 C462.25091676 -0.25044539 462.99534853 -0.26038175 463.76233885 -0.27061921 C470.20254594 -0.18343445 475.33607725 1.97367787 480.1841917 6.22211266 C480.72301983 6.87308922 481.26184795 7.52406578 481.8170042 8.19476891 C482.37130108 8.84316734 482.92559795 9.49156578 483.4966917 10.15961266 C486.98278052 15.21915237 487.23231101 19.92540772 487.20942974 25.92897606 C487.21396085 26.80148386 487.21849197 27.67399166 487.22316039 28.5729391 C487.23581921 31.49617125 487.23418305 34.41921745 487.23253155 37.34247398 C487.23851588 39.43858136 487.24532121 41.53468654 487.25288677 43.6307888 C487.27056396 49.32507492 487.27524289 55.01930094 487.27651834 60.71361184 C487.27841736 65.46754806 487.28577496 70.22147027 487.29286253 74.9754011 C487.30915075 86.19216699 487.3140311 97.40890076 487.31260967 108.62567711 C487.31140822 120.19491447 487.33250998 131.76396529 487.364097 143.33315545 C487.3902524 153.26706597 487.40097727 163.20091553 487.39969885 173.13486022 C487.39918899 179.06741592 487.40488569 184.99980587 487.42605495 190.93232727 C487.44542469 196.51297754 487.44557024 202.09330373 487.43102169 207.67396545 C487.42893092 209.72017452 487.43365042 211.7664038 487.44574261 213.8125782 C487.46120301 216.6103024 487.45188158 219.40691027 487.43648052 222.20461082 C487.45191121 223.41353523 487.45191121 223.41353523 487.46765363 224.64688236 C487.38693193 231.30194856 485.37960662 236.4755914 480.97716045 241.49945641 C480.32618389 242.03828453 479.67520733 242.57711266 479.0045042 243.13226891 C478.35610577 243.68656578 477.70770733 244.24086266 477.03966045 244.81195641 C472.03698084 248.25886787 467.4203477 248.5415197 461.48221111 248.49777794 C460.63264365 248.49948679 459.78307619 248.50119564 458.90776426 248.50295627 C456.06256493 248.5062491 453.21760171 248.49525084 450.37242413 248.48431969 C448.33230374 248.48375553 446.29218295 248.48407222 444.2520628 248.4852047 C438.71324381 248.48577903 433.17451127 248.47401163 427.63571239 248.46005678 C421.84745868 248.44756288 416.05920303 248.44637998 410.27093792 248.44400597 C399.30984342 248.43778726 388.34878877 248.42137114 377.38771182 248.40130699 C364.90899968 248.37896016 352.43028564 248.36795761 339.95155847 248.35791612 C314.28168495 248.33700527 288.61184681 248.30182168 262.9420042 248.25726891 C262.52344913 247.44546921 262.52344913 247.44546921 262.09643841 246.61726952 C260.8114003 244.13151495 259.51934059 241.64947404 258.22716045 239.16742516 C257.78843609 238.31620079 257.34971172 237.46497643 256.89769268 236.58795738 C253.21451746 229.53264574 249.05849975 223.37521376 243.9420042 217.25726891 C243.25880108 216.41164391 242.57559795 215.56601891 241.8716917 214.69476891 C223.78972939 193.34337429 196.38874852 180.22538938 168.67247295 177.85883141 C165.09835666 177.59327134 161.52304725 177.40457422 157.9420042 177.25726891 C157.90333233 176.02363609 157.90333233 176.02363609 157.8638792 174.76508141 C157.26281376 162.93502069 154.72395991 155.10308443 146.43028545 146.45648766 C136.35453944 137.55123647 123.89295943 136.95374554 111.03184795 136.99847984 C109.77848644 136.9949752 108.52512493 136.99147057 107.23378277 136.98785973 C103.82463477 136.98060872 100.41573227 136.98224746 97.00659847 136.9886179 C93.42118049 136.99371852 89.83577225 136.98897524 86.25035381 136.98584557 C80.23186159 136.98221768 74.21341862 136.98697399 68.19493389 136.99652672 C61.25914945 137.00740901 54.32348263 137.00388259 47.38770103 136.99287391 C41.40861385 136.98376736 35.42956186 136.98253216 29.45046997 136.98775125 C25.89000111 136.9908525 22.32958734 136.99133149 18.76912212 136.98467827 C14.79675587 136.97777244 10.824519 136.98737237 6.85216045 136.99847984 C5.10626125 136.99240715 5.10626125 136.99240715 3.32509136 136.98621178 C-7.13511855 137.04017757 -15.66389492 138.58290953 -25.0579958 143.25726891 C-25.15155496 126.96711352 -25.22203155 110.67704568 -25.26524448 94.38668633 C-25.28584487 86.82229681 -25.31391686 79.25807451 -25.35975361 71.69379234 C-25.39969907 65.09857013 -25.42544696 58.50346905 -25.43434978 51.90812922 C-25.43955158 48.41786541 -25.45172417 44.92794809 -25.48091602 41.43779564 C-25.51328633 37.53575854 -25.51395026 33.63405633 -25.51209736 29.73187828 C-25.52647846 28.58244743 -25.54085957 27.43301659 -25.55567646 26.2487545 C-25.51556793 18.43530378 -24.38584911 13.05485897 -19.09315205 7.01508141 C-18.44217548 6.47625328 -17.79119892 5.93742516 -17.1204958 5.38226891 C-16.47209736 4.82797203 -15.82369892 4.27367516 -15.15565205 3.70258141 C-10.27781394 0.34168737 -5.79544112 -0.03170243 0 0 Z M38.9420042 16.25726891 C38.6945042 18.36101891 38.4470042 20.46476891 38.1920042 22.63226891 C36.21622427 36.16295495 30.64199017 45.89703354 20.1138792 54.69086266 C11.16938598 61.14183709 1.75822073 63.36826481 -9.0579958 64.25726891 C-9.0579958 69.20726891 -9.0579958 74.15726891 -9.0579958 79.25726891 C7.79932766 80.42791637 21.54543294 73.71144444 34.1920042 62.94476891 C44.76108197 53.06242994 53.28002069 38.82758946 54.1216917 24.11664391 C54.12841085 21.49617625 54.04402328 18.87575855 53.9420042 16.25726891 C48.9920042 16.25726891 44.0420042 16.25726891 38.9420042 16.25726891 Z M406.9420042 16.25726891 C408.41713935 35.6120593 414.39689195 50.49087589 428.8795042 64.13226891 C440.44029948 73.94035555 454.51231104 80.46271368 469.9420042 79.25726891 C469.9420042 74.30726891 469.9420042 69.35726891 469.9420042 64.25726891 C468.0032542 64.00976891 466.0645042 63.76226891 464.0670042 63.50726891 C450.80123591 61.42100383 441.13780517 55.76039141 432.50841045 45.42914391 C426.7570077 37.45463037 423.9955725 28.80023407 423.18809795 19.07758141 C423.12690362 17.24016902 423.12690362 17.24016902 421.9420042 16.25726891 C419.41151018 16.18413324 416.90895584 16.16479364 414.3795042 16.19476891 C413.66858624 16.19928062 412.95766827 16.20379234 412.22520733 16.20844078 C410.46410407 16.22026027 408.70304384 16.23819627 406.9420042 16.25726891 Z M223.9420042 52.25726891 C223.48127449 55.08973961 223.48127449 55.08973961 223.3170042 58.19476891 C222.50849069 63.80720019 222.50849069 63.80720019 220.0982542 65.72211266 C218.5462137 66.34133429 216.97220123 66.90754178 215.38341045 67.42523766 C206.7478538 70.36823536 202.02657841 77.49551708 197.90684795 85.19086266 C194.80165998 92.13781807 194.75197385 100.50783429 197.1295042 107.69476891 C199.05289832 111.47523321 200.67501055 113.57107412 203.9420042 116.25726891 C204.72124249 116.90502281 204.72124249 116.90502281 205.51622295 117.56586266 C213.84835751 123.65681569 224.97885646 124.04273256 234.9420042 125.25726891 C240.14992618 125.91235343 244.37463985 126.64734642 248.9420042 129.25726891 C250.96609737 133.30545524 250.52394565 138.17414094 249.32872295 142.45258141 C247.36788101 146.99620636 244.76408187 150.01555707 240.41466045 152.40570641 C234.60371034 154.40694989 228.50317043 154.23554572 222.60997295 152.61664391 C216.9951071 149.82582301 214.50964071 144.56940241 211.99351788 139.07123375 C211.02260345 136.96683733 211.02260345 136.96683733 208.9420042 134.25726891 C205.44890441 133.03524425 205.44890441 133.03524425 201.9420042 133.25726891 C198.68574008 135.54358202 197.22409282 137.04428785 196.3170042 140.94476891 C197.87349706 149.19418102 202.63288214 156.76903633 208.9420042 162.25726891 C215.46167439 166.68683577 215.46167439 166.68683577 222.9420042 168.25726891 C222.9007542 169.47414391 222.8595042 170.69101891 222.8170042 171.94476891 C222.8170042 175.48535958 223.25935536 178.07893221 224.9420042 181.25726891 C226.87367818 183.60540625 226.87367818 183.60540625 230.3170042 183.63226891 C233.87130971 183.51452917 233.87130971 183.51452917 236.3170042 181.88226891 C238.77295284 177.91496726 238.7668397 173.84657879 238.9420042 169.25726891 C239.54786358 169.07293297 240.15372295 168.88859703 240.7779417 168.69867516 C250.36599614 165.37973324 258.08405079 159.07113211 263.04747295 150.14398766 C266.60323943 142.64427059 267.43145046 133.88434814 264.7545042 125.94476891 C261.68297702 119.04087753 257.7215382 115.68069053 251.06041241 112.4411068 C244.96028205 110.12532099 238.49993839 109.44133257 232.0670042 108.56976891 C229.96322002 108.27312472 227.86036511 107.97148136 225.75837994 107.66234398 C223.8680892 107.38601247 221.97564344 107.12454173 220.08311749 106.86395836 C217.28735111 106.32397084 215.31955962 105.79086664 212.9420042 104.25726891 C211.06504058 100.50334166 211.42207372 96.34499822 211.9420042 92.25726891 C213.91217144 87.06238848 217.05364812 83.36500977 222.0670042 80.94476891 C228.3240322 78.65052531 233.38862321 79.01045572 239.6138792 81.12055016 C245.68165193 84.08317073 248.25476643 89.66651808 251.01622295 95.51898766 C252.29021211 97.911077 253.46958579 99.13344235 255.9420042 100.25726891 C259.16012389 100.17681591 260.65487079 99.46679869 263.2545042 97.56976891 C265.47005134 94.53364875 265.24774195 92.97108335 264.9420042 89.25726891 C261.35869604 79.29488467 256.09670613 72.20764649 246.6920042 67.38226891 C244.11704256 66.17475584 241.64316495 65.15765582 238.9420042 64.25726891 C238.88592999 63.01010094 238.88592999 63.01010094 238.82872295 61.73773766 C238.76298077 60.65105797 238.69723858 59.56437828 238.6295042 58.44476891 C238.57149639 57.36582359 238.51348858 56.28687828 238.45372295 55.17523766 C238.15820231 52.29061013 238.15820231 52.29061013 236.64903545 50.39398766 C234.58993359 49.02282372 233.40222897 48.85431181 230.9420042 48.88226891 C230.2613792 48.87453453 229.5807542 48.86680016 228.8795042 48.85883141 C226.28305177 49.39277928 225.45920747 50.08261089 223.9420042 52.25726891 Z M153.5670042 114.88226891 C151.45493915 117.96913322 151.33005275 119.58556021 151.9420042 123.25726891 C153.4420042 125.75726891 153.4420042 125.75726891 155.9420042 127.25726891 C159.6137129 127.86922036 161.23013989 127.74433396 164.3170042 125.63226891 C166.42906926 122.54540459 166.55395565 120.9289776 165.9420042 117.25726891 C164.4420042 114.75726891 164.4420042 114.75726891 161.9420042 113.25726891 C158.27029551 112.64531746 156.65386852 112.77020385 153.5670042 114.88226891 Z M297.5670042 114.88226891 C295.45493915 117.96913322 295.33005275 119.58556021 295.9420042 123.25726891 C297.4420042 125.75726891 297.4420042 125.75726891 299.9420042 127.25726891 C303.6137129 127.86922036 305.23013989 127.74433396 308.3170042 125.63226891 C310.42906926 122.54540459 310.55395565 120.9289776 309.9420042 117.25726891 C308.4420042 114.75726891 308.4420042 114.75726891 305.9420042 113.25726891 C302.27029551 112.64531746 300.65386852 112.77020385 297.5670042 114.88226891 Z M425.4107542 187.70648766 C413.04586756 200.83387564 408.61383557 214.72503733 406.9420042 232.25726891 C409.42124221 232.28411986 411.9001926 232.30403438 414.3795042 232.31976891 C415.08655499 232.32814781 415.79360577 232.33652672 416.52208233 232.34515953 C418.3289398 232.35380478 420.13588023 232.30946902 421.9420042 232.25726891 C423.72094861 230.4783245 423.45298177 227.73476634 423.7545042 225.31976891 C425.75294256 212.06925371 431.47025329 202.42686608 441.7701292 193.82367516 C450.36386126 187.62567775 459.53944471 185.21750517 469.9420042 184.25726891 C469.9420042 178.97726891 469.9420042 173.69726891 469.9420042 168.25726891 C452.71831102 168.25726891 437.56247738 175.94857032 425.4107542 187.70648766 Z " fill="#000000" transform="translate(25.057995796203613,127.74273109436035)"/>
<path d="M0 0 C22.5236461 17.43667296 36.55886375 40.33987058 40.34375 68.7734375 C42.75628781 94.59036506 35.42764534 120.0748 19.265625 140.421875 C6.97153901 154.80174393 -7.28680277 164.87523478 -25.12890625 171.22265625 C-25.75893555 171.44711426 -26.38896484 171.67157227 -27.03808594 171.90283203 C-50.46680201 179.76672102 -77.378086 176.62278484 -99.40625 166.13671875 C-124.04890824 153.79957278 -140.5917936 132.27222183 -149.38671875 106.54296875 C-156.76394637 81.89830111 -152.96396425 54.72260514 -141.12890625 32.22265625 C-128.50348479 9.99442482 -108.06979376 -6.10022801 -83.82421875 -13.8046875 C-54.97072003 -21.39931877 -24.52758236 -17.27247658 0 0 Z M-61.81640625 13.3828125 C-63.62971361 15.92468086 -63.43792424 17.93990784 -63.56640625 21.03515625 C-64.015625 24.27734375 -64.015625 24.27734375 -65.12890625 27.22265625 C-68.81326508 29.99846669 -72.87583592 31.497986 -77.12890625 33.22265625 C-83.95092927 37.1905676 -87.66241343 44.5564242 -90.50390625 51.66015625 C-91.86905661 59.44151331 -92.11631054 67.17030687 -88.12890625 74.22265625 C-83.54707489 80.66306129 -77.3976434 84.11529599 -69.71044922 85.73095703 C-65.21305918 86.47534684 -60.69660762 87.02949913 -56.171875 87.578125 C-50.43994698 88.27468747 -44.5067526 89.04326636 -39.12890625 91.22265625 C-36.4030589 95.31142728 -36.52246818 98.42557561 -37.12890625 103.22265625 C-38.50993263 108.12617396 -40.71995068 111.29940286 -44.94140625 114.16015625 C-50.97603056 117.45581823 -56.42932731 117.72457882 -62.99609375 115.98828125 C-69.39148429 113.69250003 -71.43063153 109.91404501 -74.25390625 104.03515625 C-74.71023437 102.98972656 -75.1665625 101.94429688 -75.63671875 100.8671875 C-77.24532972 98.01632461 -78.04870276 97.18559365 -81.12890625 96.22265625 C-84.5579885 96.36261879 -86.4276606 96.59153516 -89.00390625 98.91015625 C-90.55889013 102.10651201 -90.65625461 103.66305484 -90.12890625 107.22265625 C-86.41532507 117.05952019 -80.62764358 124.36683041 -71.33984375 129.3125 C-68.95196677 130.29549529 -66.67119447 130.79894155 -64.12890625 131.22265625 C-64.17015625 132.43953125 -64.21140625 133.65640625 -64.25390625 134.91015625 C-64.23506109 138.46560948 -63.99873613 141.10627311 -62.12890625 144.22265625 C-59.96819158 146.30242337 -59.96819158 146.30242337 -57.12890625 147.22265625 C-53.59726329 146.46092934 -51.69019213 145.78394213 -49.12890625 143.22265625 C-48.66600404 140.56022804 -48.66600404 140.56022804 -48.50390625 137.59765625 C-48.42914063 136.59476562 -48.354375 135.591875 -48.27734375 134.55859375 C-48.22835937 133.78773438 -48.179375 133.016875 -48.12890625 132.22265625 C-47.33226562 131.91972656 -46.535625 131.61679687 -45.71484375 131.3046875 C-34.54918816 126.89004265 -28.90803323 121.74402199 -23.12890625 111.22265625 C-20.2634868 104.24598281 -19.89656994 96.02337161 -22.37890625 88.84765625 C-25.51783053 81.77787726 -30.07344758 78.14215639 -37.12890625 75.22265625 C-45.78391564 72.72430302 -54.82483166 71.56339372 -63.73193359 70.31201172 C-64.5048877 70.19873535 -65.2778418 70.08545898 -66.07421875 69.96875 C-67.10313232 69.82457642 -67.10313232 69.82457642 -68.15283203 69.67749023 C-70.39752411 69.16082834 -72.1516799 68.40125393 -74.12890625 67.22265625 C-76.15299942 63.17446991 -75.71084769 58.30578422 -74.515625 54.02734375 C-72.55406898 49.48206415 -69.94721221 46.47541153 -65.609375 44.06640625 C-59.43821778 41.96724096 -52.76554321 42.3751658 -46.62890625 44.34765625 C-42.09885453 47.74519504 -39.44755591 51.36990173 -37.06640625 56.41015625 C-35.55090801 59.56190955 -34.46119821 61.75252744 -31.12890625 63.22265625 C-27.75912941 63.15388529 -25.86803889 62.79488797 -23.19140625 60.72265625 C-21.48039384 56.6967447 -21.97599478 53.38486207 -23.12890625 49.22265625 C-27.23571121 39.76677437 -34.1166449 32.59589776 -43.69140625 28.72265625 C-45.16369775 28.20276032 -46.64065211 27.69492061 -48.12890625 27.22265625 C-48.1546875 26.39121094 -48.18046875 25.55976563 -48.20703125 24.703125 C-48.26375 23.61644531 -48.32046875 22.52976562 -48.37890625 21.41015625 C-48.4253125 20.33121094 -48.47171875 19.25226563 -48.51953125 18.140625 C-48.87018577 15.15223987 -48.87018577 15.15223987 -50.953125 13.359375 C-54.46639196 11.52389801 -58.43721415 11.05961793 -61.81640625 13.3828125 Z " fill="#000000" transform="translate(240.12890625,336.77734375)"/>
<path d="M0 0 C2.19628906 1.52416992 2.19628906 1.52416992 4 4 C4.47043537 6.81249132 4.70174228 9.23404137 4.7421875 12.0546875 C4.76024445 12.83385529 4.77830139 13.61302307 4.79690552 14.415802 C4.8258679 16.06138798 4.84367364 17.70720315 4.85107422 19.35302734 C4.87488637 21.86302226 4.97319242 24.36317665 5.07421875 26.87109375 C5.31793026 38.36656196 5.31793026 38.36656196 2.20410156 42.22583008 C-0.45680382 43.8705007 -3.06567755 44.91807105 -6 46 C-8.19570513 47.09700975 -10.38276742 48.21143015 -12.5625 49.33984375 C-15.03393484 50.55518626 -17.51686649 51.74627441 -20 52.9375 C-20.66451172 53.25747955 -21.32902344 53.57745911 -22.01367188 53.90713501 C-143.83190045 112.47345254 -143.83190045 112.47345254 -204.53125 112.09765625 C-205.84603333 112.09553383 -205.84603333 112.09553383 -207.18737793 112.09336853 C-209.95828821 112.08781768 -212.72911457 112.07527461 -215.5 112.0625 C-217.39062382 112.05747864 -219.28124893 112.05291685 -221.171875 112.04882812 C-225.78128183 112.0378644 -230.39062673 112.02063425 -235 112 C-232.34716915 110.2314461 -230.4018988 109.33838714 -227.43359375 108.328125 C-226.49104736 108.00110596 -225.54850098 107.67408691 -224.57739258 107.3371582 C-223.02314575 106.79901489 -223.02314575 106.79901489 -221.4375 106.25 C-186.32546719 93.81389625 -152.80619111 77.96519149 -119.5 61.375 C-118.54379761 60.89966827 -117.58759521 60.42433655 -116.60241699 59.93460083 C-102.55439519 52.94035141 -88.73265842 45.59324384 -75 38 C-73.72029805 37.29610212 -72.44037768 36.59260107 -71.16015625 35.88964844 C-58.76395816 29.07173949 -46.43721133 22.13967709 -34.1875 15.0625 C-33.10130371 14.43682129 -32.01510742 13.81114258 -30.89599609 13.16650391 C-26.41732761 10.58124498 -21.94979935 7.98746837 -17.54296875 5.28125 C-16.90657471 4.89702881 -16.27018066 4.51280762 -15.61450195 4.11694336 C-14.04479267 3.16542415 -12.48649328 2.19514368 -10.9296875 1.22265625 C-6.88380317 -0.46582614 -4.37808128 -0.49770944 0 0 Z " fill="#000000" transform="translate(340,0)"/>
<path d="M0 0 C1.38543797 -0.00870475 2.77086632 -0.01907456 4.15628052 -0.03097534 C7.90439396 -0.05766723 11.65210297 -0.05892271 15.40029287 -0.05384874 C18.53631276 -0.05170309 21.67225186 -0.06149198 24.80825436 -0.07105958 C32.21077321 -0.09321982 39.61308906 -0.09414206 47.015625 -0.08203125 C54.63609974 -0.06995499 62.25583564 -0.09457075 69.87618434 -0.13717139 C76.43357207 -0.17247307 82.99072536 -0.18439521 89.54820454 -0.1778959 C93.45819208 -0.17428053 97.36765261 -0.17943697 101.27755356 -0.20732498 C104.95677921 -0.2325876 108.63485858 -0.228498 112.31406784 -0.2025032 C114.29589616 -0.19556219 116.27776034 -0.21805206 118.25946045 -0.24163818 C126.18849082 -0.14871647 131.38655965 1.11421594 137.31298828 6.54931641 C142.42928641 12.66391661 141.73050666 18.83682422 141.31298828 26.54931641 C140.13865234 26.82904297 138.96431641 27.10876953 137.75439453 27.39697266 C125.70492317 30.36274451 112.75859412 33.58557918 102.31298828 40.54931641 C100.15736961 40.81217194 100.15736961 40.81217194 97.60897827 40.8302002 C96.15823914 40.84733063 96.15823914 40.84733063 94.67819214 40.86480713 C93.08855148 40.86816071 93.08855148 40.86816071 91.46679688 40.87158203 C89.79070343 40.88647675 89.79070343 40.88647675 88.08074951 40.90167236 C84.3742834 40.93094388 80.66798863 40.94452603 76.96142578 40.95556641 C74.38652542 40.96706942 71.81162511 40.97858489 69.23672485 40.9901123 C64.52250814 41.00845288 59.80835995 41.02104849 55.09411371 41.02710581 C48.17074716 41.03605163 41.24817344 41.07107239 34.32504785 41.129107 C28.31770655 41.17770392 22.31073757 41.19300203 16.30318069 41.19645691 C13.75393999 41.20250162 11.20470229 41.21853072 8.65559006 41.24482727 C5.08163783 41.2790557 1.50959789 41.2751632 -2.06445312 41.26220703 C-3.11206818 41.2806366 -4.15968323 41.29906616 -5.23904419 41.3180542 C-12.54656809 41.23534388 -17.16657883 39.36846213 -22.68701172 34.54931641 C-27.27158671 29.1820091 -27.41331537 23.957952 -27.19873047 17.00244141 C-26.21531499 10.36626369 -23.18338526 6.42644515 -17.91769409 2.46694946 C-12.35822044 -0.61971746 -6.1902307 -0.02380411 0 0 Z " fill="#000000" transform="translate(26.68701171875,279.45068359375)"/>
<path d="M0 0 C1.69196504 3.38393008 1.11986549 7.22477791 1.09765625 10.9453125 C1.09553383 12.27283035 1.09553383 12.27283035 1.09336853 13.62716675 C1.0877614 16.45981191 1.07520771 19.29237864 1.0625 22.125 C1.05748592 24.04296761 1.05292285 25.96093646 1.04882812 27.87890625 C1.03778966 32.58596782 1.02052025 37.2929706 1 42 C-41.33090724 59.91285607 -85.69635048 74.00002613 -131 82 C-132.15854492 82.20882812 -133.31708984 82.41765625 -134.51074219 82.6328125 C-156.68320925 86.4942066 -178.5771781 86.44537309 -201 86 C-197.81620042 83.87746695 -195.0145594 82.86695229 -191.39453125 81.63671875 C-190.02124554 81.16476456 -188.64812474 80.69233031 -187.27514648 80.21948242 C-186.54915253 79.97072357 -185.82315857 79.72196472 -185.07516479 79.46566772 C-125.47699408 58.9688743 -68.36007045 30.92876457 -13.765625 -0.41796875 C-8.10204624 -3.65772779 -5.94103803 -3.02656654 0 0 Z " fill="#000000" transform="translate(415,26)"/>
<path d="M0 0 C3.4939071 2.50844613 3.93432573 3.73730292 5 8 C5 21.2 5 34.4 5 48 C-40.87 48 -86.74 48 -134 48 C-130.98142742 45.98761828 -128.73234722 45.21253165 -125.26953125 44.22265625 C-124.09124756 43.88024902 -122.91296387 43.5378418 -121.69897461 43.18505859 C-121.06780731 43.00320007 -120.43664001 42.82134155 -119.78634644 42.63397217 C-84.09968731 32.30189562 -48.63832104 19.75643138 -15.35351562 3.1484375 C-9.91877828 0.51807319 -6.05613051 -0.67963242 0 0 Z " fill="#000000" transform="translate(468,64)"/>
<path d="M0 0 C1.44730341 0.00747031 2.89461702 0.01315951 4.3419342 0.01715088 C8.13152519 0.03234539 11.92049249 0.07157211 15.70983887 0.1159668 C19.58446824 0.15705426 23.45919944 0.17519049 27.33398438 0.1953125 C34.9221578 0.23807386 42.50981928 0.3062482 50.09765625 0.390625 C50.4851001 1.45933838 50.87254395 2.52805176 51.27172852 3.62915039 C51.79806352 5.06146225 52.32469052 6.49366683 52.8515625 7.92578125 C53.10474243 8.62658813 53.35792236 9.32739502 53.61877441 10.04943848 C57.39160886 20.25464641 62.90662963 29.43449688 69.84765625 37.81640625 C71.09765625 39.390625 71.09765625 39.390625 71.09765625 40.390625 C60.04024853 40.529949 48.98305132 40.63641026 37.92494297 40.70149803 C32.7895706 40.73274502 27.65480094 40.7750963 22.51977539 40.84326172 C17.55952511 40.90869129 12.59985271 40.94438089 7.63920403 40.95988846 C5.75140224 40.97093257 3.86363034 40.9924995 1.97607613 41.02500534 C-15.88176536 41.3201689 -15.88176536 41.3201689 -22.37562561 35.97549438 C-27.24261052 30.92313064 -28.17628408 27.46212477 -28.52734375 20.515625 C-28.34769296 14.69246152 -27.28091135 10.96944274 -23.8984375 6.2578125 C-16.57558599 -0.5921347 -9.62409656 -0.14629919 0 0 Z " fill="#000000" transform="translate(27.90234375,447.609375)"/>
<path d="M0 0 C1.38004228 0.00747107 2.76009525 0.01315991 4.14015198 0.01715088 C7.75220626 0.03233948 11.36360536 0.07156068 14.97540283 0.1159668 C18.66905863 0.15706733 22.3628215 0.17519323 26.05664062 0.1953125 C33.28935946 0.23806336 40.52154065 0.3062301 47.75390625 0.390625 C47.68244385 0.93122559 47.61098145 1.47182617 47.53735352 2.02880859 C46.60075321 10.02058588 46.64078875 17.98367843 46.69140625 26.015625 C46.69643428 27.41536297 46.70099487 28.8151027 46.70507812 30.21484375 C46.71677458 33.60681669 46.73316539 36.99869733 46.75390625 40.390625 C38.9561442 40.53022593 31.15867997 40.63654734 23.35997868 40.70149803 C19.73782479 40.73268688 16.11653165 40.77492467 12.49487305 40.84326172 C8.99346518 40.90890917 5.49288008 40.94442443 1.99090385 40.95988846 C0.01832277 40.97621682 -1.95393153 41.0229833 -3.92601013 41.07040405 C-11.98800893 41.07339736 -17.22947018 39.93784992 -23.24609375 34.390625 C-27.83066874 29.02331769 -27.9723974 23.79926059 -27.7578125 16.84375 C-26.77490641 10.21100967 -23.73643881 6.29618367 -18.51171875 2.29833984 C-12.81777155 -0.86981047 -6.322735 -0.10089461 0 0 Z " fill="#000000" transform="translate(27.24609375,391.609375)"/>
<path d="M0 0 C1.35762189 0.00747134 2.71525465 0.01316005 4.07289124 0.01715088 C7.62576695 0.03233738 11.17797627 0.07155661 14.73059082 0.1159668 C18.363922 0.15707197 21.99736211 0.17519421 25.63085938 0.1953125 C32.74506233 0.23805944 39.85881551 0.30622407 46.97265625 0.390625 C46.01625606 1.67295572 45.05887239 2.95455297 44.10107422 4.23583984 C43.5680368 4.94960785 43.03499939 5.66337585 42.48580933 6.39877319 C40.76150607 8.66857432 38.94009921 10.84106785 37.09765625 13.015625 C30.4041731 21.3247765 25.6846128 30.86246507 20.97265625 40.390625 C16.15304831 40.54009992 11.33481886 40.64836103 6.51342773 40.72021484 C4.87712065 40.75019742 3.24097168 40.79099933 1.60522461 40.84326172 C-14.78968072 41.35357003 -14.78968072 41.35357003 -21.44335938 35.98291016 C-26.3985796 31.00172237 -27.30208402 27.44629624 -27.65234375 20.515625 C-27.47269296 14.69246152 -26.40591135 10.96944274 -23.0234375 6.2578125 C-15.88199596 -0.42244005 -9.43450363 -0.15003923 0 0 Z " fill="#000000" transform="translate(59.02734375,335.609375)"/>
</svg>
